<?xml version="1.0" encoding="UTF-8" standalone="no"?>
<!-- Uploaded to: SVG Repo, www.svgrepo.com, Generator: SVG Repo Mixer Tools -->

<svg
   width="934.76575"
   height="523.67346"
   viewBox="0 0 28.042973 15.710204"
   fill="none"
   version="1.1"
   id="svg4"
   sodipodi:docname="1_5hearts.svg"
   inkscape:version="1.2.2 (732a01da63, 2022-12-09)"
   xmlns:inkscape="http://www.inkscape.org/namespaces/inkscape"
   xmlns:sodipodi="http://sodipodi.sourceforge.net/DTD/sodipodi-0.dtd"
   xmlns="http://www.w3.org/2000/svg"
   xmlns:svg="http://www.w3.org/2000/svg">
  <defs
     id="defs8" />
  <sodipodi:namedview
     id="namedview6"
     pagecolor="#ffffff"
     bordercolor="#000000"
     borderopacity="0.25"
     inkscape:showpageshadow="2"
     inkscape:pageopacity="0.0"
     inkscape:pagecheckerboard="0"
     inkscape:deskcolor="#d1d1d1"
     showgrid="false"
     inkscape:zoom="0.35376967"
     inkscape:cx="1666.3384"
     inkscape:cy="613.39345"
     inkscape:window-width="1920"
     inkscape:window-height="1046"
     inkscape:window-x="-11"
     inkscape:window-y="-11"
     inkscape:window-maximized="1"
     inkscape:current-layer="svg4" />
  <path
     d="m 16.00929,1.6908239 c -0.459,-0.4640101 -1.0057,-0.83205001 -1.6083,-1.08271002 -0.6026,-0.25065005 -1.2491,-0.37891005 -1.9017,-0.37729005 -0.6527,-0.00162 -1.2991,0.12664 -1.9017,0.37729005 C 9.9949902,0.85877389 9.4482902,1.2268138 8.98929,1.6908239 l -0.28,0.29 -0.28,-0.28001 c -0.9283,-0.92819001 -2.18727,-1.44964007 -3.5,-1.44964007 -1.31274,0 -2.57171,0.52145006 -3.5,1.44964007 C 0.51315003,2.6354639 0,3.8920539 0,5.2008239 c 0,1.30878 0.51315003,2.56538 1.42929,3.49998 l 6.77,6.7900001 c 0.1406,0.1405 0.3312,0.2194 0.53,0.2194 0.1987,0 0.3894,-0.0789 0.53,-0.2194 l 6.77,-6.7900001 c 0.9165,-0.9377 1.4279,-2.1979 1.4242,-3.50908 -0.0037,-1.31119 -0.5224,-2.56844 -1.4442,-3.5009 z"
     fill="#000000"
     id="path2"
     style="fill:#d40000" />
  <path
     id="path2-6"
     style="fill:#d40000;stroke-width:1"
     d="m 24.311898,0 c -1.312739,0 -2.57175,0.5214203 -3.500039,1.4496095 -0.916139,0.9346491 -1.429278,2.1912705 -1.429278,3.5000392 0,1.3087787 0.513139,2.5653814 1.429278,3.4999811 l 6.77004,6.7899602 c 0.124257,0.124167 0.287566,0.200206 0.461074,0.216211 V 1.6807033 L 27.811879,1.4496095 C 26.883579,0.5214203 25.624627,0 24.311898,0 Z" />
</svg>
