<?xml version="1.0" encoding="UTF-8" standalone="no"?>
<!-- Uploaded to: SVG Repo, www.svgrepo.com, Generator: SVG Repo Mixer Tools -->

<svg
   width="1582.0796"
   height="520.84674"
   viewBox="0 0 47.462389 15.625402"
   fill="none"
   version="1.1"
   id="svg4"
   sodipodi:docname="2_5hearts.svg"
   inkscape:version="1.2.2 (732a01da63, 2022-12-09)"
   xmlns:inkscape="http://www.inkscape.org/namespaces/inkscape"
   xmlns:sodipodi="http://sodipodi.sourceforge.net/DTD/sodipodi-0.dtd"
   xmlns="http://www.w3.org/2000/svg"
   xmlns:svg="http://www.w3.org/2000/svg">
  <defs
     id="defs8" />
  <sodipodi:namedview
     id="namedview6"
     pagecolor="#ffffff"
     bordercolor="#000000"
     borderopacity="0.25"
     inkscape:showpageshadow="2"
     inkscape:pageopacity="0.0"
     inkscape:pagecheckerboard="0"
     inkscape:deskcolor="#d1d1d1"
     showgrid="false"
     inkscape:zoom="0.35376967"
     inkscape:cx="1666.3384"
     inkscape:cy="610.56675"
     inkscape:window-width="1920"
     inkscape:window-height="1046"
     inkscape:window-x="-11"
     inkscape:window-y="-11"
     inkscape:window-maximized="1"
     inkscape:current-layer="svg4" />
  <path
     d="m 16.00929,1.606023 c -0.459,-0.4640101 -1.0057,-0.83205005 -1.6083,-1.08271006 -0.6026,-0.25065005 -1.2491,-0.37891005 -1.9017,-0.37729005 -0.6527,-0.00162 -1.2991,0.12664 -1.9017,0.37729005 C 9.9949902,0.77397295 9.4482902,1.1420129 8.98929,1.606023 l -0.28,0.29 -0.28,-0.28001 c -0.9283,-0.92819005 -2.18727,-1.44964011 -3.5,-1.44964011 -1.31274,0 -2.57171,0.52145006 -3.5,1.44964011 C 0.51315003,2.550663 0,3.807253 0,5.116023 c 0,1.30878 0.51315003,2.56538 1.42929,3.49998 l 6.77,6.79 c 0.1406,0.1405 0.3312,0.2194 0.53,0.2194 0.1987,0 0.3894,-0.0789 0.53,-0.2194 l 6.77,-6.79 c 0.9165,-0.9377 1.4279,-2.1979 1.4242,-3.50908 -0.0037,-1.31119 -0.5224,-2.56844 -1.4442,-3.5009 z"
     fill="#000000"
     id="path2"
     style="fill:#d40000" />
  <path
     d="m 35.621166,1.6060242 c -0.459,-0.4640101 -1.0057,-0.83205009 -1.6083,-1.0827101 -0.6026,-0.25064999 -1.2491,-0.37891 -1.9017,-0.37729001 -0.6527,-0.00162 -1.2991,0.12664002 -1.901699,0.37729001 -0.6026,0.25066001 -1.1493,0.6187 -1.6083,1.0827101 l -0.28,0.29 -0.280001,-0.28001 c -0.9283,-0.92819009 -2.187269,-1.4496401 -3.5,-1.4496401 -1.31274,0 -2.57171,0.52145001 -3.5,1.4496401 -0.916139,0.93465 -1.42929,2.19124 -1.42929,3.50001 0,1.30878 0.51315,2.56538 1.42929,3.49998 l 6.77,6.7899998 c 0.1406,0.1405 0.3312,0.219399 0.53,0.219399 0.1987,0 0.3894,-0.0789 0.530001,-0.219399 l 6.769999,-6.7899998 c 0.9165,-0.9377 1.4279,-2.1979 1.4242,-3.50908 -0.0037,-1.31119 -0.5224,-2.56844 -1.4442,-3.5009 z"
     fill="#000000"
     id="path2-7"
     style="fill:#d40000" />
  <path
     id="path2-6"
     style="fill:#d40000;stroke-width:1"
     d="m 43.731313,0 c -1.312739,0 -2.57175,0.5214203 -3.500039,1.4496095 -0.916139,0.9346491 -1.429278,2.1912705 -1.429278,3.5000392 0,1.3087787 0.513139,2.5653814 1.429278,3.4999811 l 6.77004,6.7899602 c 0.124257,0.124167 0.287566,0.200206 0.461074,0.216211 V 1.6807033 L 47.231294,1.4496095 C 46.302994,0.5214203 45.044042,0 43.731313,0 Z" />
</svg>
