<?xml version="1.0" encoding="UTF-8" standalone="no"?>
<!-- Uploaded to: SVG Repo, www.svgrepo.com, Generator: SVG Repo Mixer Tools -->

<svg
   width="1235.5128"
   height="520.89752"
   viewBox="0 0 37.065385 15.626926"
   fill="none"
   version="1.1"
   id="svg4"
   sodipodi:docname="2hearts.svg"
   inkscape:version="1.2.2 (732a01da63, 2022-12-09)"
   xmlns:inkscape="http://www.inkscape.org/namespaces/inkscape"
   xmlns:sodipodi="http://sodipodi.sourceforge.net/DTD/sodipodi-0.dtd"
   xmlns="http://www.w3.org/2000/svg"
   xmlns:svg="http://www.w3.org/2000/svg">
  <defs
     id="defs8" />
  <sodipodi:namedview
     id="namedview6"
     pagecolor="#ffffff"
     bordercolor="#000000"
     borderopacity="0.25"
     inkscape:showpageshadow="2"
     inkscape:pageopacity="0.0"
     inkscape:pagecheckerboard="0"
     inkscape:deskcolor="#d1d1d1"
     showgrid="false"
     inkscape:zoom="0.37476659"
     inkscape:cx="1572.979"
     inkscape:cy="418.92741"
     inkscape:window-width="1920"
     inkscape:window-height="1046"
     inkscape:window-x="-11"
     inkscape:window-y="-11"
     inkscape:window-maximized="1"
     inkscape:current-layer="svg4" />
  <path
     d="m 16.00929,1.6075463 c -0.459,-0.4640101 -1.0057,-0.83205003 -1.6083,-1.08271004 -0.6026,-0.25065005 -1.2491,-0.37891005 -1.9017,-0.37729005 -0.6527,-0.00162 -1.2991,0.12664 -1.9017,0.37729005 C 9.9949902,0.77549627 9.4482902,1.1435362 8.98929,1.6075463 l -0.28,0.29 -0.28,-0.28001 c -0.9283,-0.92819003 -2.18727,-1.44964009 -3.5,-1.44964009 -1.31274,0 -2.57171,0.52145006 -3.5,1.44964009 C 0.51315003,2.5521863 0,3.8087763 0,5.1175463 c 0,1.30878 0.51315003,2.56538 1.42929,3.49998 l 6.77,6.7900007 c 0.1406,0.1405 0.3312,0.2194 0.53,0.2194 0.1987,0 0.3894,-0.0789 0.53,-0.2194 l 6.77,-6.7900007 c 0.9165,-0.9377 1.4279,-2.1979 1.4242,-3.50908 -0.0037,-1.31119 -0.5224,-2.56844 -1.4442,-3.5009 z"
     fill="#000000"
     id="path2"
     style="fill:#d40000" />
  <path
     d="m 35.621166,1.4600152 c -0.459,-0.46401008 -1.0057,-0.83205004 -1.6083,-1.08271004 -0.6026,-0.25064999 -1.2491,-0.37891 -1.9017,-0.377290003426 C 31.458466,-0.00160484 30.812066,0.12665517 30.209467,0.37730516 c -0.6026,0.25066 -1.1493,0.61869996 -1.6083,1.08271004 l -0.28,0.29 -0.280001,-0.28001 c -0.9283,-0.92819004 -2.187269,-1.44964004 -3.5,-1.44964004 -1.31274,0 -2.57171,0.52145 -3.5,1.44964004 -0.916139,0.93465 -1.42929,2.19124 -1.42929,3.50001 0,1.30878 0.51315,2.56538 1.42929,3.49998 l 6.77,6.7900008 c 0.1406,0.1405 0.3312,0.219399 0.53,0.219399 0.1987,0 0.3894,-0.0789 0.530001,-0.219399 l 6.769999,-6.7900008 c 0.9165,-0.9377 1.4279,-2.1979 1.4242,-3.50908 -0.0037,-1.31119 -0.5224,-2.56844 -1.4442,-3.5009 z"
     fill="#000000"
     id="path2-7"
     style="fill:#d40000" />
</svg>
