<?xml version="1.0" encoding="UTF-8" standalone="no"?>
<!-- Uploaded to: SVG Repo, www.svgrepo.com, Generator: SVG Repo Mixer Tools -->

<svg
   width="2235.0469"
   height="515.97986"
   viewBox="0 0 67.051408 15.479396"
   fill="none"
   version="1.1"
   id="svg4"
   sodipodi:docname="3_5hearts.svg"
   inkscape:version="1.2.2 (732a01da63, 2022-12-09)"
   xmlns:inkscape="http://www.inkscape.org/namespaces/inkscape"
   xmlns:sodipodi="http://sodipodi.sourceforge.net/DTD/sodipodi-0.dtd"
   xmlns="http://www.w3.org/2000/svg"
   xmlns:svg="http://www.w3.org/2000/svg">
  <defs
     id="defs8" />
  <sodipodi:namedview
     id="namedview6"
     pagecolor="#ffffff"
     bordercolor="#000000"
     borderopacity="0.25"
     inkscape:showpageshadow="2"
     inkscape:pageopacity="0.0"
     inkscape:pagecheckerboard="0"
     inkscape:deskcolor="#d1d1d1"
     showgrid="false"
     inkscape:zoom="0.35376967"
     inkscape:cx="1666.3384"
     inkscape:cy="604.91335"
     inkscape:window-width="1920"
     inkscape:window-height="1046"
     inkscape:window-x="-11"
     inkscape:window-y="-11"
     inkscape:window-maximized="1"
     inkscape:current-layer="svg4" />
  <path
     d="M 16.00929,1.4600158 C 15.55029,0.99600576 15.00359,0.62796576 14.40099,0.37730575 13.79839,0.1266557 13.15189,-0.0016043 12.49929,1.5696567e-5 11.84659,-0.0016043 11.20019,0.1266557 10.59759,0.37730575 9.9949902,0.62796576 9.4482902,0.99600576 8.98929,1.4600158 l -0.28,0.29 -0.28,-0.28001 c -0.9283,-0.92819004 -2.18727,-1.4496401 -3.5,-1.4496401 -1.31274,0 -2.57171,0.52145006 -3.5,1.4496401 C 0.51315003,2.4046558 0,3.6612458 0,4.9700158 c 0,1.30878 0.51315003,2.56538 1.42929,3.49998 l 6.77,6.7900002 c 0.1406,0.1405 0.3312,0.2194 0.53,0.2194 0.1987,0 0.3894,-0.0789 0.53,-0.2194 l 6.77,-6.7900002 c 0.9165,-0.9377 1.4279,-2.1979 1.4242,-3.50908 -0.0037,-1.31119 -0.5224,-2.56844 -1.4442,-3.5009 z"
     fill="#000000"
     id="path2"
     style="fill:#d40000" />
  <path
     d="m 35.621166,1.460017 c -0.459,-0.46401008 -1.0057,-0.83205008 -1.6083,-1.08271009 -0.6026,-0.25064999 -1.2491,-0.37891 -1.9017,-0.377290006861 C 31.458466,-0.00160309 30.812066,0.12665692 30.209467,0.37730691 c -0.6026,0.25066001 -1.1493,0.61870001 -1.6083,1.08271009 l -0.28,0.29 -0.280001,-0.28001 c -0.9283,-0.92819008 -2.187269,-1.44964009 -3.5,-1.44964009 -1.31274,0 -2.57171,0.52145001 -3.5,1.44964009 -0.916139,0.93465 -1.42929,2.19124 -1.42929,3.50001 0,1.30878 0.51315,2.56538 1.42929,3.49998 l 6.77,6.79 c 0.1406,0.1405 0.3312,0.219399 0.53,0.219399 0.1987,0 0.3894,-0.0789 0.530001,-0.219399 l 6.769999,-6.79 c 0.9165,-0.9377 1.4279,-2.1979 1.4242,-3.50908 -0.0037,-1.31119 -0.5224,-2.56844 -1.4442,-3.5009 z"
     fill="#000000"
     id="path2-7"
     style="fill:#d40000" />
  <path
     d="m 55.233042,1.4600153 c -0.459,-0.46401004 -1.0057,-0.83205004 -1.6083,-1.08271007 -0.6026,-0.25065 -1.2491,-0.37891006 -1.9017,-0.377290073433 -0.6527,-0.0016199966 -1.2991,0.126640073433 -1.9017,0.377290073433 -0.6026,0.25066003 -1.1493,0.61870003 -1.6083,1.08271007 l -0.28,0.29 -0.28,-0.28001 c -0.9283,-0.92819004 -2.18727,-1.44964013 -3.5,-1.44964013 -1.31274,0 -2.57171,0.52145009 -3.5,1.44964013 -0.91614,0.93465 -1.42929,2.19124 -1.42929,3.50001 0,1.30878 0.51315,2.56538 1.42929,3.49998 l 6.77,6.7900007 c 0.1406,0.1405 0.3312,0.2194 0.53,0.2194 0.1987,0 0.3894,-0.0789 0.53,-0.2194 l 6.77,-6.7900007 c 0.9165,-0.9377 1.4279,-2.1979 1.4242,-3.50908 -0.0037,-1.31119 -0.5224,-2.56844 -1.4442,-3.5009 z"
     fill="#000000"
     id="path2-7-2"
     style="fill:#d40000" />
  <path
     id="path2-6"
     style="fill:#d40000;stroke-width:1"
     d="m 63.32033,0.02359469 c -1.312739,0 -2.57175,0.5214203 -3.500039,1.44960951 -0.916139,0.9346491 -1.429278,2.1912705 -1.429278,3.5000392 0,1.3087787 0.513139,2.5653814 1.429278,3.4999811 l 6.77004,6.7899605 c 0.124257,0.124167 0.287566,0.200206 0.461074,0.216211 V 1.704298 L 66.820311,1.4732042 C 65.892011,0.54501499 64.633059,0.02359469 63.32033,0.02359469 Z" />
</svg>
