<?xml version="1.0" encoding="UTF-8" standalone="no"?>
<!-- Uploaded to: SVG Repo, www.svgrepo.com, Generator: SVG Repo Mixer Tools -->

<svg
   width="2876.7073"
   height="515.97986"
   viewBox="0 0 86.30122 15.479396"
   fill="none"
   version="1.1"
   id="svg4"
   sodipodi:docname="4_5hearts.svg"
   inkscape:version="1.2.2 (732a01da63, 2022-12-09)"
   xmlns:inkscape="http://www.inkscape.org/namespaces/inkscape"
   xmlns:sodipodi="http://sodipodi.sourceforge.net/DTD/sodipodi-0.dtd"
   xmlns="http://www.w3.org/2000/svg"
   xmlns:svg="http://www.w3.org/2000/svg">
  <defs
     id="defs8" />
  <sodipodi:namedview
     id="namedview6"
     pagecolor="#ffffff"
     bordercolor="#000000"
     borderopacity="0.25"
     inkscape:showpageshadow="2"
     inkscape:pageopacity="0.0"
     inkscape:pagecheckerboard="0"
     inkscape:deskcolor="#d1d1d1"
     showgrid="false"
     inkscape:zoom="0.35376967"
     inkscape:cx="1666.3384"
     inkscape:cy="604.91335"
     inkscape:window-width="1920"
     inkscape:window-height="1046"
     inkscape:window-x="-11"
     inkscape:window-y="-11"
     inkscape:window-maximized="1"
     inkscape:current-layer="svg4" />
  <path
     d="M 16.00929,1.4600159 C 15.55029,0.9960058 15.00359,0.6279658 14.40099,0.37730579 13.79839,0.12665574 13.15189,-0.00160426 12.49929,1.5736572e-5 11.84659,-0.00160426 11.20019,0.12665574 10.59759,0.37730579 9.9949902,0.6279658 9.4482902,0.9960058 8.98929,1.4600159 l -0.28,0.29 -0.28,-0.28001 c -0.9283,-0.9281901 -2.18727,-1.44964016 -3.5,-1.44964016 -1.31274,0 -2.57171,0.52145006 -3.5,1.44964016 C 0.51315003,2.4046559 0,3.6612459 0,4.9700159 c 0,1.30878 0.51315003,2.56538 1.42929,3.49998 l 6.77,6.7900001 c 0.1406,0.1405 0.3312,0.2194 0.53,0.2194 0.1987,0 0.3894,-0.0789 0.53,-0.2194 l 6.77,-6.7900001 c 0.9165,-0.9377 1.4279,-2.1979 1.4242,-3.50908 -0.0037,-1.31119 -0.5224,-2.56844 -1.4442,-3.5009 z"
     fill="#000000"
     id="path2"
     style="fill:#d40000" />
  <path
     d="m 35.621166,1.4600168 c -0.459,-0.4640101 -1.0057,-0.8320501 -1.6083,-1.08271011 -0.6026,-0.25064999 -1.2491,-0.37891 -1.9017,-0.377290003428 C 31.458466,-0.00160331 30.812066,0.1266567 30.209467,0.37730669 c -0.6026,0.25066001 -1.1493,0.61870001 -1.6083,1.08271011 l -0.28,0.29 -0.280001,-0.28001 c -0.9283,-0.9281901 -2.187269,-1.44964011 -3.5,-1.44964011 -1.31274,0 -2.57171,0.52145001 -3.5,1.44964011 -0.916139,0.93465 -1.42929,2.19124 -1.42929,3.50001 0,1.30878 0.51315,2.56538 1.42929,3.49998 l 6.77,6.7900002 c 0.1406,0.1405 0.3312,0.219399 0.53,0.219399 0.1987,0 0.3894,-0.0789 0.530001,-0.219399 l 6.769999,-6.7900002 c 0.9165,-0.9377 1.4279,-2.1979 1.4242,-3.50908 -0.0037,-1.31119 -0.5224,-2.56844 -1.4442,-3.5009 z"
     fill="#000000"
     id="path2-7"
     style="fill:#d40000" />
  <path
     d="m 55.233042,1.4600156 c -0.459,-0.4640101 -1.0057,-0.8320501 -1.6083,-1.08271013 -0.6026,-0.25065 -1.2491,-0.37891006 -1.9017,-0.377290063428 -0.6527,-0.0016199966 -1.2991,0.126640063428 -1.9017,0.377290063428 -0.6026,0.25066003 -1.1493,0.61870003 -1.6083,1.08271013 l -0.28,0.29 -0.28,-0.28001 c -0.9283,-0.9281901 -2.18727,-1.44964019 -3.5,-1.44964019 -1.31274,0 -2.57171,0.52145009 -3.5,1.44964019 -0.91614,0.93465 -1.42929,2.19124 -1.42929,3.50001 0,1.30878 0.51315,2.56538 1.42929,3.49998 l 6.77,6.7900004 c 0.1406,0.1405 0.3312,0.2194 0.53,0.2194 0.1987,0 0.3894,-0.0789 0.53,-0.2194 l 6.77,-6.7900004 c 0.9165,-0.9377 1.4279,-2.1979 1.4242,-3.50908 -0.0037,-1.31119 -0.5224,-2.56844 -1.4442,-3.5009 z"
     fill="#000000"
     id="path2-7-2"
     style="fill:#d40000" />
  <path
     d="M 74.84492,1.4600152 C 74.38592,0.9960051 73.83922,0.6279651 73.23662,0.37730519 72.634021,0.12665519 71.987521,-0.00160484 71.33492,1.5156572e-5 70.68222,-0.00160484 70.03582,0.12665519 69.433219,0.37730519 68.83062,0.6279651 68.28392,0.9960051 67.824919,1.4600152 l -0.28,0.2900001 -0.28,-0.2800101 c -0.928299,-0.92819 -2.18727,-1.44964001 -3.5,-1.44964001 -1.31274,0 -2.571711,0.52145001 -3.5,1.44964001 -0.91614,0.9346502 -1.429291,2.1912402 -1.429291,3.5000102 0,1.30878 0.513151,2.56538 1.429291,3.49998 l 6.769999,6.7900006 c 0.140602,0.1405 0.3312,0.2194 0.53,0.2194 0.1987,0 0.3894,-0.0789 0.53,-0.2194 l 6.77,-6.7900006 c 0.9165,-0.9377 1.4279,-2.1979 1.4242,-3.50908 -0.0037,-1.31119 -0.5224,-2.56844 -1.444198,-3.5009002 z"
     fill="#000000"
     id="path2-7-1"
     style="fill:#d40000" />
  <path
     id="path2-6"
     style="fill:#d40000;stroke-width:1"
     d="m 82.570143,0.0235941 c -1.312739,0 -2.57175,0.5214203 -3.500039,1.4496095 -0.916139,0.9346491 -1.429278,2.1912705 -1.429278,3.5000392 0,1.3087787 0.513139,2.5653814 1.429278,3.4999811 l 6.77004,6.7899611 c 0.124257,0.124167 0.287566,0.200206 0.461074,0.216211 V 1.7042974 L 86.070124,1.4732036 C 85.141824,0.5450144 83.882872,0.0235941 82.570143,0.0235941 Z" />
</svg>
