<?xml version="1.0" encoding="UTF-8" standalone="no"?>
<!-- Uploaded to: SVG Repo, www.svgrepo.com, Generator: SVG Repo Mixer Tools -->

<svg
   width="2542.9712"
   height="531.36139"
   viewBox="0 0 76.289137 15.940842"
   fill="none"
   version="1.1"
   id="svg4"
   sodipodi:docname="4hearts.svg"
   inkscape:version="1.2.2 (732a01da63, 2022-12-09)"
   xmlns:inkscape="http://www.inkscape.org/namespaces/inkscape"
   xmlns:sodipodi="http://sodipodi.sourceforge.net/DTD/sodipodi-0.dtd"
   xmlns="http://www.w3.org/2000/svg"
   xmlns:svg="http://www.w3.org/2000/svg">
  <defs
     id="defs8" />
  <sodipodi:namedview
     id="namedview6"
     pagecolor="#ffffff"
     bordercolor="#000000"
     borderopacity="0.25"
     inkscape:showpageshadow="2"
     inkscape:pageopacity="0.0"
     inkscape:pagecheckerboard="0"
     inkscape:deskcolor="#d1d1d1"
     showgrid="false"
     inkscape:zoom="0.37476659"
     inkscape:cx="1572.979"
     inkscape:cy="429.60072"
     inkscape:window-width="1920"
     inkscape:window-height="1046"
     inkscape:window-x="-11"
     inkscape:window-y="-11"
     inkscape:window-maximized="1"
     inkscape:current-layer="svg4" />
  <path
     d="m 16.00929,1.9214619 c -0.459,-0.4640101 -1.0057,-0.8320501 -1.6083,-1.08271011 -0.6026,-0.25065005 -1.2491,-0.37891005 -1.9017,-0.37729005 -0.6527,-0.00162 -1.2991,0.12664 -1.9017,0.37729005 C 9.9949902,1.0894118 9.4482902,1.4574518 8.98929,1.9214619 l -0.28,0.29 -0.28,-0.28001 c -0.9283,-0.9281901 -2.18727,-1.44964016 -3.5,-1.44964016 -1.31274,0 -2.57171,0.52145006 -3.5,1.44964016 C 0.51315003,2.8661019 0,4.1226919 0,5.4314619 c 0,1.30878 0.51315003,2.56538 1.42929,3.49998 l 6.77,6.7900001 c 0.1406,0.1405 0.3312,0.2194 0.53,0.2194 0.1987,0 0.3894,-0.0789 0.53,-0.2194 l 6.77,-6.7900001 c 0.9165,-0.9377 1.4279,-2.1979 1.4242,-3.50908 -0.0037,-1.31119 -0.5224,-2.56844 -1.4442,-3.5009 z"
     fill="#000000"
     id="path2"
     style="fill:#d40000" />
  <path
     d="m 35.621166,1.7739308 c -0.459,-0.4640101 -1.0057,-0.83205011 -1.6083,-1.08271011 -0.6026,-0.25064999 -1.2491,-0.37891 -1.9017,-0.37729 -0.6527,-0.00162 -1.2991,0.12664001 -1.901699,0.37729 -0.6026,0.25066 -1.1493,0.61870001 -1.6083,1.08271011 l -0.28,0.29 -0.280001,-0.28001 c -0.9283,-0.92819011 -2.187269,-1.44964011 -3.5,-1.44964011 -1.31274,0 -2.57171,0.52145 -3.5,1.44964011 -0.916139,0.93465 -1.42929,2.19124 -1.42929,3.50001 0,1.30878 0.51315,2.56538 1.42929,3.49998 l 6.77,6.7900002 c 0.1406,0.1405 0.3312,0.219399 0.53,0.219399 0.1987,0 0.3894,-0.0789 0.530001,-0.219399 l 6.769999,-6.7900002 c 0.9165,-0.9377 1.4279,-2.1979 1.4242,-3.50908 -0.0037,-1.31119 -0.5224,-2.56844 -1.4442,-3.5009 z"
     fill="#000000"
     id="path2-7"
     style="fill:#d40000" />
  <path
     d="m 55.233042,1.6875966 c -0.459,-0.4640101 -1.0057,-0.83205011 -1.6083,-1.08271013 -0.6026,-0.25065 -1.2491,-0.37891006 -1.9017,-0.37729006 -0.6527,-0.00162 -1.2991,0.12664006 -1.9017,0.37729006 -0.6026,0.25066002 -1.1493,0.61870003 -1.6083,1.08271013 l -0.28,0.29 -0.28,-0.28001 c -0.9283,-0.92819011 -2.18727,-1.44964019 -3.5,-1.44964019 -1.31274,0 -2.57171,0.52145008 -3.5,1.44964019 -0.91614,0.93465 -1.42929,2.19124 -1.42929,3.50001 0,1.30878 0.51315,2.56538 1.42929,3.49998 l 6.77,6.7900004 c 0.1406,0.1405 0.3312,0.2194 0.53,0.2194 0.1987,0 0.3894,-0.0789 0.53,-0.2194 l 6.77,-6.7900004 c 0.9165,-0.9377 1.4279,-2.1979 1.4242,-3.50908 -0.0037,-1.31119 -0.5224,-2.56844 -1.4442,-3.5009 z"
     fill="#000000"
     id="path2-7-2"
     style="fill:#d40000" />
  <path
     d="M 74.84492,1.4600152 C 74.38592,0.99600509 73.83922,0.62796515 73.23662,0.37730519 72.634021,0.12665519 71.987521,-0.00160484 71.33492,1.5156508e-5 70.68222,-0.00160484 70.03582,0.12665519 69.433219,0.37730519 68.83062,0.62796515 68.28392,0.99600509 67.824919,1.4600152 l -0.28,0.2900001 -0.28,-0.2800101 c -0.928299,-0.92819001 -2.18727,-1.44964001 -3.5,-1.44964001 -1.31274,0 -2.571711,0.52145 -3.5,1.44964001 -0.91614,0.9346502 -1.429291,2.1912402 -1.429291,3.5000102 0,1.30878 0.513151,2.56538 1.429291,3.49998 l 6.769999,6.7900006 c 0.140602,0.1405 0.3312,0.2194 0.53,0.2194 0.1987,0 0.3894,-0.0789 0.53,-0.2194 l 6.77,-6.7900006 c 0.9165,-0.9377 1.4279,-2.1979 1.4242,-3.50908 -0.0037,-1.31119 -0.5224,-2.56844 -1.444198,-3.5009002 z"
     fill="#000000"
     id="path2-7-1"
     style="fill:#d40000" />
</svg>
