<?xml version="1.0" encoding="UTF-8" standalone="no"?>
<!-- Uploaded to: SVG Repo, www.svgrepo.com, Generator: SVG Repo Mixer Tools -->

<svg
   width="581.78369"
   height="515.97986"
   viewBox="0 0 17.453511 15.479396"
   fill="none"
   version="1.1"
   id="svg4"
   sodipodi:docname="heart.svg"
   inkscape:version="1.2.2 (732a01da63, 2022-12-09)"
   xmlns:inkscape="http://www.inkscape.org/namespaces/inkscape"
   xmlns:sodipodi="http://sodipodi.sourceforge.net/DTD/sodipodi-0.dtd"
   xmlns="http://www.w3.org/2000/svg"
   xmlns:svg="http://www.w3.org/2000/svg">
  <defs
     id="defs8" />
  <sodipodi:namedview
     id="namedview6"
     pagecolor="#ffffff"
     bordercolor="#000000"
     borderopacity="0.25"
     inkscape:showpageshadow="2"
     inkscape:pageopacity="0.0"
     inkscape:pagecheckerboard="0"
     inkscape:deskcolor="#d1d1d1"
     showgrid="false"
     inkscape:zoom="1.06"
     inkscape:cx="292.92453"
     inkscape:cy="323.58491"
     inkscape:window-width="1920"
     inkscape:window-height="1046"
     inkscape:window-x="-11"
     inkscape:window-y="-11"
     inkscape:window-maximized="1"
     inkscape:current-layer="svg4" />
  <path
     d="m 16.00929,1.4600152 c -0.459,-0.46401004 -1.0057,-0.83205004 -1.6083,-1.08271004 -0.6026,-0.25065 -1.2491,-0.37891 -1.9017,-0.377290003424 C 11.84659,-0.00160484 11.20019,0.12665516 10.59759,0.37730516 c -0.6026,0.25066 -1.1493,0.6187 -1.6083,1.08271004 l -0.28,0.29 -0.28,-0.28001 c -0.9283,-0.92819004 -2.18727,-1.44964004 -3.5,-1.44964004 -1.31274,0 -2.57171,0.52145 -3.5,1.44964004 C 0.51315,2.4046552 0,3.6612452 0,4.9700152 c 0,1.30878 0.51315,2.56538 1.42929,3.49998 l 6.77,6.7899998 c 0.1406,0.1405 0.3312,0.2194 0.53,0.2194 0.1987,0 0.3894,-0.0789 0.53,-0.2194 l 6.77,-6.7899998 c 0.9165,-0.9377 1.4279,-2.1979 1.4242,-3.50908 -0.0037,-1.31119 -0.5224,-2.56844 -1.4442,-3.5009 z"
     fill="#000000"
     id="path2"
     style="fill:#d40000" />
</svg>
