<?xml version="1.0" encoding="utf-8"?>
<!-- Svg Vector Icons : http://www.onlinewebfonts.com/icon -->
<!DOCTYPE svg PUBLIC "-//W3C//DTD SVG 1.1//EN" "http://www.w3.org/Graphics/SVG/1.1/DTD/svg11.dtd">
<svg version="1.1" xmlns="http://www.w3.org/2000/svg" xmlns:xlink="http://www.w3.org/1999/xlink" x="0px" y="0px" viewBox="0 0 1000 1000" enable-background="new 0 0 1000 1000" xml:space="preserve">
<metadata> Svg Vector Icons : http://www.onlinewebfonts.com/icon </metadata>
<g><path d="M847.7,383.2c-1.7,0.4-3.3,0.6-4.9,0.6c-9.5,0-18.1-6.5-20.5-16.2c-9.8-40.8-84.2-56.9-112.6-62.7c-8.1,15.9-24.5,27-43.6,27c-11.9,0-22.6-4.4-31.1-11.4c2.6,2.6,5.3,5.3,8.3,8.5c3.9,3.2,7.5,6.3,10.7,9.3c0.4,0.3,0.7,0.6,1,0.9v0c27.8,26.6,158.6,164.3,206,290.6c39,104,41.8,146.6,41.2,181.4c-0.7,47.9-2.6,175.1-226.9,177.6c-124.6,1.4-150,2.2-350.4-0.8C100.4,984.7,98.5,858.6,97.7,811.2c-0.5-34.7,2.2-77.4,41.2-181.4C178.4,524.7,248.1,421.1,346,338.2c2.8-2.4,5.7-5.7,8.7-10.1c4.8-10,7-20.1,7.3-30.2c-5.3,1.1-10.5,1.9-15.8,3.1c-10.4,2.3-20.8-4.2-23.1-14.6c-2.3-10.4,4.2-20.8,14.6-23.1c5.7-1.3,11.4-2.2,17.1-3.4c-11.6-30.7-34.9-59.5-52.9-81.7c-3.9-4.8-7.6-9.4-10.8-13.5c-23.7-25.6-32.5-66.8-36.2-87.9c-0.5-2.9-0.9-5.1-1.2-6.3l-1.5-5.3c-10.6-37.5-11-38.9-4.6-47.4c3.7-4.8,9.5-7.7,15.6-7.7c10.7,0,15.9,7.7,19.4,12.8c4.4,6.5,7.8,10.7,10,12.4c3.4-0.8,8.6-1.2,14.7-1.2c14.6,0,32.7,2.4,53.7,5.2c22.3,3,47.5,6.4,70.6,6.8c0,0,0.1,0,0.1,0c23.8,0,41.5-7.5,60.2-15.4c21-8.9,43-18.1,70.1-16.2c34.1,2.4,58.4,19.8,79.9,35.1c11.6,8.2,22.5,16,33.9,20.8c13.6,5.7,34.7-0.1,49.8-5.2c9.1-3.1,16.3-5.5,23.4-5.5c9.1,0,14.8,4,17.9,7.4c15.8,8.1,9.6,25.4,7.6,31.3c-1.3,3.8-3.4,9.6-6.3,18.6c-10.5,32.6-61.5,67.9-115,110c-4.9,3.8-8.6,6.7-10.6,8.4c-2.8,2.4-8.3,7.7-13.4,15.3c9-10.3,22-16.9,36.8-16.9c16.7,0,31.4,8.4,40.3,21.2c15.5-11,41.9-38.1,44.2-49c2.3-11.1,13.1-19,24.3-17.2c11.2,1.9,18.9,11.5,17.5,22.7c-2.2,16.8-20.3,40.9-40.6,59.9c42.8,11.7,99.2,35.3,111.5,86.3C866,369.1,859,380.5,847.7,383.2z M629.4,196.6c62.2-49,96.6-74.4,102.1-91.5c0.1-0.4,0.3-0.8,0.4-1.1c-19.6,6.4-48.9,11.5-71.1,2.1c-15.3-6.5-28.5-15.9-41.2-24.9c-19-13.5-37-26.3-60.3-28c-18.2-1.3-33.8,5.4-52.3,13.2c-20.5,8.6-43.7,18.4-73.5,18.4l-2.7,0c-25.4-0.5-51.7-4-75-7.2c-18.8-2.5-36.5-4.9-48.5-4.9c-4.8,0-7.4,0.4-8.8,0.7c-1.6,0.4-3.1,0.6-4.7,0.7c3.4,18.5,11.1,56.7,26.9,73.8c4.1,5.2,7.6,9.5,11.4,14.1c20.3,25,48.5,48.3,61.6,87.7c69.7-10.7,136-11.7,192.7-2.8c9.3-23.4,25-35.4,31.5-40.9C620,204.1,624.1,200.9,629.4,196.6z M619,296.7c1,5.6,3,9.3,6.5,13.5c-2.7-4.1-4.7-8.6-6.1-13.4C619.3,296.8,619.1,296.8,619,296.7z M628,367c-2.9-2.6-6.5-5.7-10.4-9c-0.7-0.6-1.4-1.2-2-1.9c-3.5-3.8-6.7-7-9.6-9.9c-12.7-12.7-24.7-24.6-26.6-53.6c-0.1-1.5,0.1-2.9,0.1-4.3c-52-8-114-7-178.6,2.7c0.7,18.1-2.7,36.7-12.1,55.5c-0.4,0.8-0.8,1.5-1.3,2.2c-5.3,7.8-10.8,14.1-16.5,19c-92.9,78.6-158.7,176.8-195.8,275.6c-36.7,97.7-39.3,136.2-38.8,167.2c0.8,47.5,2.1,132.5,189.2,135.3c226,3.4,239.9,2,349.4,0.8c186.5-2,187.8-88,188.6-136c0.5-31-2.2-69.5-38.8-167.2C779.1,521.5,643.4,381.6,628,367z M605.8,720.8c0,42.6-26.3,86.6-96.2,94.7v44.9h-7.8v0.3h-32.3v-44.1c-49.6-3-85.8-23.6-110.3-51.6l24.6-31.4c18.7,22.1,47,41.8,85.8,46.2V660.4c-50.1-13.8-100-30.5-100-90.9c0-50.6,41-86.5,100-90.9v-43.7h18.8v-0.4h21.4v46c37,4.9,66.4,20.5,88.9,43.9l-24.6,30c-17.8-19.5-39.8-31.1-64.3-36.1v107.6C557.7,639.8,605.8,659.7,605.8,720.8z M509.5,778.9c40.4-7.2,54-33,54-55.1c0-29.5-23.3-43-54-53V778.9z M469.4,515.4c-34.9,2.5-57.8,23.1-57.8,51.6c0,27,24.4,38.8,57.8,48.6V515.4z"/></g>
</svg>